<svg width="105" height="23" viewBox="0 0 105 23" fill="none" xmlns="http://www.w3.org/2000/svg">
<path d="M26.3675 16.8699L30.6795 6.95787H32.2055L36.4755 16.8699H34.4595L33.5355 14.6019H29.2375L28.3415 16.8699H26.3675ZM29.8395 13.0899H32.9195L31.3935 9.05787L29.8395 13.0899ZM37.3723 10.1499H38.9823V11.0879H39.0243C39.2203 10.7799 39.5143 10.5139 39.9063 10.2899C40.3076 10.0659 40.7883 9.95387 41.3483 9.95387C42.3003 9.95387 43.0796 10.2899 43.6863 10.9619C44.3023 11.6339 44.6103 12.4739 44.6103 13.4819C44.6103 14.4899 44.3069 15.3392 43.7003 16.0299C43.1029 16.7205 42.3049 17.0659 41.3063 17.0659C40.8396 17.0659 40.4056 16.9679 40.0043 16.7719C39.6029 16.5759 39.2949 16.3099 39.0803 15.9739H39.0523V20.2299H37.3723V10.1499ZM42.3843 15.0079C42.7296 14.5692 42.9023 14.0605 42.9023 13.4819C42.9023 12.9032 42.7296 12.3992 42.3843 11.9699C42.0483 11.5405 41.5769 11.3259 40.9703 11.3259C40.3823 11.3259 39.9063 11.5499 39.5423 11.9979C39.1783 12.4459 38.9963 12.9499 38.9963 13.5099C38.9963 14.0699 39.1783 14.5692 39.5423 15.0079C39.9063 15.4465 40.3823 15.6659 40.9703 15.6659C41.5769 15.6659 42.0483 15.4465 42.3843 15.0079ZM46.2316 10.1499H47.8416V11.0879H47.8836C48.0796 10.7799 48.3736 10.5139 48.7656 10.2899C49.167 10.0659 49.6476 9.95387 50.2076 9.95387C51.1596 9.95387 51.939 10.2899 52.5456 10.9619C53.1616 11.6339 53.4696 12.4739 53.4696 13.4819C53.4696 14.4899 53.1663 15.3392 52.5596 16.0299C51.9623 16.7205 51.1643 17.0659 50.1656 17.0659C49.699 17.0659 49.265 16.9679 48.8636 16.7719C48.4623 16.5759 48.1543 16.3099 47.9396 15.9739H47.9116V20.2299H46.2316V10.1499ZM51.2436 15.0079C51.589 14.5692 51.7616 14.0605 51.7616 13.4819C51.7616 12.9032 51.589 12.3992 51.2436 11.9699C50.9076 11.5405 50.4363 11.3259 49.8296 11.3259C49.2416 11.3259 48.7656 11.5499 48.4016 11.9979C48.0376 12.4459 47.8556 12.9499 47.8556 13.5099C47.8556 14.0699 48.0376 14.5692 48.4016 15.0079C48.7656 15.4465 49.2416 15.6659 49.8296 15.6659C50.4363 15.6659 50.9076 15.4465 51.2436 15.0079ZM55.119 16.8699V6.28587H56.799V16.8699H55.119ZM60.1251 12.8379H63.5691C63.5691 12.3712 63.4338 11.9839 63.1631 11.6759C62.8924 11.3679 62.5004 11.2139 61.9871 11.2139C61.4924 11.2139 61.0678 11.3679 60.7131 11.6759C60.3584 11.9839 60.1624 12.3712 60.1251 12.8379ZM65.2491 13.5939C65.2491 13.7899 65.2444 13.9392 65.2351 14.0419H60.1251C60.1624 14.5085 60.3678 14.9005 60.7411 15.2179C61.1144 15.5352 61.5484 15.6939 62.0431 15.6939C62.8178 15.6939 63.4104 15.4045 63.8211 14.8259L64.9411 15.7219C64.2784 16.6179 63.3171 17.0659 62.0571 17.0659C61.0024 17.0659 60.1344 16.7485 59.4531 16.1139C58.7811 15.4792 58.4451 14.6252 58.4451 13.5519C58.4451 12.4785 58.7811 11.6105 59.4531 10.9479C60.1251 10.2852 60.9744 9.95387 62.0011 9.95387C62.9718 9.95387 63.7558 10.2665 64.3531 10.8919C64.9504 11.5172 65.2491 12.4179 65.2491 13.5939ZM76.6622 7.76987L75.5142 9.02987C75.3275 8.77787 75.0615 8.57254 74.7162 8.41387C74.3802 8.25521 74.0395 8.17587 73.6942 8.17587C73.2368 8.17587 72.8308 8.29254 72.4762 8.52587C72.1215 8.74987 71.9442 9.08587 71.9442 9.53387C71.9442 9.75787 71.9815 9.94921 72.0562 10.1079C72.1402 10.2572 72.2802 10.3925 72.4762 10.5139C72.6815 10.6352 72.8728 10.7285 73.0502 10.7939C73.2275 10.8592 73.4888 10.9479 73.8342 11.0599C74.1608 11.1625 74.4268 11.2512 74.6322 11.3259C74.8468 11.4005 75.0988 11.5219 75.3882 11.6899C75.6868 11.8485 75.9202 12.0212 76.0882 12.2079C76.2655 12.3945 76.4148 12.6419 76.5362 12.9499C76.6668 13.2485 76.7322 13.5845 76.7322 13.9579C76.7322 14.9752 76.3868 15.7592 75.6962 16.3099C75.0148 16.8512 74.1562 17.1219 73.1202 17.1219C72.4575 17.1219 71.8182 17.0005 71.2022 16.7579C70.5955 16.5059 70.1008 16.1559 69.7182 15.7079L70.9782 14.5319C71.2208 14.8585 71.5428 15.1245 71.9442 15.3299C72.3455 15.5259 72.7468 15.6239 73.1482 15.6239C73.6242 15.6239 74.0395 15.5025 74.3942 15.2599C74.7582 15.0172 74.9402 14.6485 74.9402 14.1539C74.9402 13.9859 74.9168 13.8365 74.8702 13.7059C74.8235 13.5659 74.7348 13.4399 74.6042 13.3279C74.4828 13.2159 74.3755 13.1272 74.2822 13.0619C74.1888 12.9872 74.0208 12.9079 73.7782 12.8239C73.5448 12.7305 73.3768 12.6652 73.2742 12.6279C73.1715 12.5905 72.9662 12.5252 72.6582 12.4319C72.3035 12.3199 72.0002 12.2032 71.7482 12.0819C71.4962 11.9605 71.2348 11.7972 70.9642 11.5919C70.7028 11.3772 70.5022 11.1065 70.3622 10.7799C70.2222 10.4439 70.1522 10.0565 70.1522 9.61787C70.1522 8.67521 70.5068 7.95654 71.2162 7.46187C71.9348 6.95787 72.7888 6.70587 73.7782 6.70587C74.3008 6.70587 74.8188 6.79921 75.3322 6.98587C75.8548 7.16321 76.2982 7.42454 76.6622 7.76987ZM78.5432 11.4939H77.3672V10.1499H78.5432V8.20387H80.1952V10.1499H81.8752V11.4939H80.1952V14.6159C80.1952 14.9519 80.2559 15.2085 80.3772 15.3859C80.4985 15.5632 80.7319 15.6519 81.0772 15.6519C81.3665 15.6519 81.6045 15.6052 81.7912 15.5119L81.8472 16.8279C81.5299 16.9492 81.1565 17.0099 80.7272 17.0099C79.9059 17.0099 79.3365 16.7999 79.0192 16.3799C78.7019 15.9505 78.5432 15.3672 78.5432 14.6299V11.4939ZM82.699 13.4819C82.699 12.4459 83.049 11.6012 83.749 10.9479C84.449 10.2852 85.317 9.95387 86.353 9.95387C87.389 9.95387 88.257 10.2852 88.957 10.9479C89.657 11.6012 90.007 12.4459 90.007 13.4819C90.007 14.5272 89.6523 15.3859 88.943 16.0579C88.243 16.7299 87.3797 17.0659 86.353 17.0659C85.3263 17.0659 84.4583 16.7299 83.749 16.0579C83.049 15.3859 82.699 14.5272 82.699 13.4819ZM84.911 11.9699C84.575 12.3992 84.407 12.9032 84.407 13.4819C84.407 14.0605 84.575 14.5692 84.911 15.0079C85.247 15.4465 85.7277 15.6659 86.353 15.6659C86.9783 15.6659 87.459 15.4465 87.795 15.0079C88.131 14.5692 88.299 14.0605 88.299 13.4819C88.299 12.9032 88.131 12.3992 87.795 11.9699C87.459 11.5405 86.9783 11.3259 86.353 11.3259C85.7277 11.3259 85.247 11.5405 84.911 11.9699ZM91.6359 16.8699V10.1499H93.2459V11.2699H93.2739C93.4606 10.8685 93.7266 10.5512 94.0719 10.3179C94.4173 10.0752 94.8046 9.95387 95.2339 9.95387C95.3926 9.95387 95.5279 9.96787 95.6399 9.99587V11.5359C95.4533 11.4892 95.2806 11.4659 95.1219 11.4659C94.8326 11.4659 94.5759 11.5125 94.3519 11.6059C94.1279 11.6992 93.9506 11.8159 93.8199 11.9559C93.6986 12.0959 93.5959 12.2545 93.5119 12.4319C93.4373 12.5999 93.3859 12.7539 93.3579 12.8939C93.3299 13.0339 93.3159 13.1599 93.3159 13.2719V16.8699H91.6359ZM97.7774 12.8379H101.221C101.221 12.3712 101.086 11.9839 100.815 11.6759C100.545 11.3679 100.153 11.2139 99.6394 11.2139C99.1448 11.2139 98.7201 11.3679 98.3654 11.6759C98.0108 11.9839 97.8148 12.3712 97.7774 12.8379ZM102.901 13.5939C102.901 13.7899 102.897 13.9392 102.887 14.0419H97.7774C97.8148 14.5085 98.0201 14.9005 98.3934 15.2179C98.7668 15.5352 99.2008 15.6939 99.6954 15.6939C100.47 15.6939 101.063 15.4045 101.473 14.8259L102.593 15.7219C101.931 16.6179 100.969 17.0659 99.7094 17.0659C98.6548 17.0659 97.7868 16.7485 97.1054 16.1139C96.4334 15.4792 96.0974 14.6252 96.0974 13.5519C96.0974 12.4785 96.4334 11.6105 97.1054 10.9479C97.7774 10.2852 98.6268 9.95387 99.6534 9.95387C100.624 9.95387 101.408 10.2665 102.005 10.8919C102.603 11.5172 102.901 12.4179 102.901 13.5939Z" fill="#808285"/>
<g clip-path="url(#clip0)">
<path d="M4.818 0.869873H17.182C19.843 0.869873 22 3.0269 22 5.68787V18.0519C22 20.7128 19.843 22.8699 17.182 22.8699H4.818C2.15703 22.8699 0 20.7128 0 18.0519V5.68787C0 3.0269 2.15703 0.869873 4.818 0.869873Z" fill="url(#paint0_linear)"/>
<path d="M7.05055 16.838L7.05261 16.8386L6.3004 18.1415C6.02583 18.617 5.41773 18.78 4.94216 18.5054C4.46666 18.2308 4.30364 17.6227 4.57821 17.1472L5.13234 16.1874L5.18553 16.0953C5.28049 15.9588 5.51484 15.7232 5.98363 15.7675C5.98363 15.7675 7.08681 15.8872 7.16665 16.4606C7.16665 16.4606 7.17748 16.6492 7.05055 16.838ZM17.7191 13.5105H15.3735C15.2137 13.4997 15.1441 13.4427 15.1166 13.4095L15.1148 13.4065L12.604 9.05752L12.6007 9.05967L12.4502 8.8438C12.2034 8.46636 11.8115 9.43161 11.8115 9.43161C11.3436 10.5072 11.8779 11.73 12.0641 12.0996L15.5517 18.1402C15.8261 18.6157 16.4342 18.7787 16.9099 18.504C17.3854 18.2295 17.5484 17.6214 17.2738 17.1458L16.4017 15.6354C16.3848 15.5987 16.3554 15.4994 16.5343 15.499H17.7191C18.2682 15.499 18.7134 15.0538 18.7134 14.5047C18.7134 13.9555 18.2682 13.5104 17.7191 13.5104V13.5105ZM13.1632 14.8621C13.1632 14.8621 13.2884 15.499 12.804 15.499H4.13297C3.58383 15.499 3.13867 15.0538 3.13867 14.5047C3.13867 13.9555 3.58383 13.5104 4.13297 13.5104H6.36219C6.72209 13.4896 6.80734 13.2818 6.80734 13.2818L6.80941 13.2828L9.71925 8.24275L9.71839 8.24258C9.77141 8.14521 9.72724 8.05317 9.71959 8.03865L8.75855 6.37413C8.48398 5.89863 8.64692 5.29045 9.1225 5.01597C9.59808 4.7414 10.2062 4.90425 10.4807 5.37983L10.9264 6.15181L11.3713 5.3812C11.6459 4.90571 12.254 4.74269 12.7296 5.01734C13.2051 5.29191 13.3681 5.89992 13.0935 6.3755L9.0443 13.3889C9.02659 13.4316 9.02118 13.4986 9.15292 13.5104H11.5733L11.5738 13.534C11.5738 13.534 12.9727 13.5557 13.1632 14.8621Z" fill="white"/>
</g>
<defs>
<linearGradient id="paint0_linear" x1="11" y1="0.869873" x2="11" y2="22.8699" gradientUnits="userSpaceOnUse">
<stop stop-color="#17C9FB"/>
<stop offset="1" stop-color="#1A74E8"/>
</linearGradient>
<clipPath id="clip0">
<rect width="22" height="22" fill="white" transform="translate(0 0.869873)"/>
</clipPath>
</defs>
</svg>
