<svg width="32" height="31" viewBox="0 0 32 31" fill="none" xmlns="http://www.w3.org/2000/svg">
<g clip-path="url(#clip0)">
<path d="M29.4632 5.37741e-08H2.39252C1.46554 0.000464357 0.714062 0.752403 0.714294 1.67962V28.7503C0.714759 29.6773 1.4667 30.4288 2.39391 30.4286H29.4632C30.3907 30.4288 31.1426 29.6771 31.1429 28.7497C31.1429 28.7494 31.1429 28.7492 31.1429 28.749V1.67822C31.1424 0.751243 30.3905 -0.000232098 29.4632 5.37741e-08Z" fill="#4267B2"/>
<path d="M21.7237 30.4286V18.6613H25.6907L26.285 14.0554H21.7237V11.1219C21.7237 9.79148 22.093 8.88492 24.0008 8.88492H26.4187V4.77654C25.998 4.72059 24.5547 4.59546 22.8754 4.59546C19.3689 4.59546 16.9692 6.73497 16.9692 10.6658V14.0554H13.017V18.6613H16.9692V30.4286H21.7237Z" fill="white"/>
</g>
<defs>
<clipPath id="clip0">
<rect width="30.4286" height="30.4286" fill="white" transform="translate(0.714294)"/>
</clipPath>
</defs>
</svg>
