<svg width="24" height="24" viewBox="0 0 24 24" fill="none" xmlns="http://www.w3.org/2000/svg">
<path d="M20.6411 18.7128L20.6412 18.7129C20.8327 18.8405 20.8902 19.0961 20.7718 19.2935L19.6511 21.1616L19.6511 21.1616L19.6491 21.165C19.4172 21.5586 19.043 21.8481 18.6038 21.9738C16.9681 22.4216 13.0371 22.6321 6.53601 16.131C0.0349679 9.63 0.24516 5.69855 0.692919 4.06291C0.818612 3.6237 1.10813 3.24949 1.50169 3.01761L1.5017 3.01762L1.50511 3.01558L3.37319 1.89488C3.37321 1.89487 3.37323 1.89486 3.37325 1.89484C3.57063 1.77652 3.82619 1.83403 3.95386 2.02554L3.95387 2.02555L5.57371 4.45534L5.57372 4.45536L6.93178 6.49264C6.93181 6.4927 6.93185 6.49276 6.93189 6.49282C7.05677 6.68072 7.01575 6.93309 6.83785 7.07176C6.83782 7.07178 6.83779 7.07181 6.83776 7.07183L5.16756 8.37103C5.16721 8.3713 5.16686 8.37157 5.16651 8.37185C4.60858 8.80222 4.44843 9.57564 4.78983 10.1923L4.79031 10.1931C4.8316 10.2674 4.87344 10.3442 4.91696 10.4241C5.12368 10.8036 5.3681 11.2523 5.76914 11.8198C6.25501 12.5073 6.96694 13.3657 8.13303 14.5332C9.29934 15.701 10.1579 16.4132 10.8461 16.8989C11.4107 17.2973 11.8585 17.5409 12.2365 17.7465C12.3187 17.7912 12.3975 17.8341 12.4736 17.8764L12.4745 17.8769C13.091 18.2182 13.8643 18.0582 14.2947 17.5004C14.2951 17.5 14.2954 17.4996 14.2957 17.4992L15.5949 15.829C15.7337 15.6509 15.9862 15.6099 16.1741 15.7349L18.2761 17.136L18.2762 17.1361L20.6411 18.7128Z" stroke="black"/>
<path d="M19.127 10.8964C19.127 11.0996 18.9623 11.2642 18.7592 11.2642C18.5561 11.2642 18.3914 11.0995 18.3914 10.8964C18.3876 7.44463 15.5903 4.64741 12.1386 4.64358L11.7708 4.27579C11.7708 4.07262 11.9355 3.90796 12.1386 3.90796C15.9965 3.91221 19.1228 7.03855 19.127 10.8964ZM19.127 10.8964L18.7592 10.8968L18.627 10.8969C18.627 10.8968 18.627 10.8966 18.627 10.8964H18.7592H18.8914H19.127Z" stroke="black"/>
<mask id="path-3-inside-1" fill="white">
<path d="M12.1386 6.85028C14.3721 6.85291 16.1819 8.66281 16.1845 10.8962C16.1845 11.0993 16.3492 11.264 16.5524 11.264C16.7555 11.264 16.9202 11.0994 16.9202 10.8962C16.9172 8.25669 14.7782 6.11767 12.1386 6.11462C11.9355 6.11462 11.7708 6.27929 11.7708 6.48245C11.7708 6.68562 11.9355 6.85028 12.1386 6.85028Z"/>
</mask>
<path d="M12.1386 6.85028L12.1398 5.85028H12.1386V6.85028ZM16.1845 10.8962H17.1845L17.1845 10.895L16.1845 10.8962ZM16.9202 10.8962H17.9202L17.9202 10.895L16.9202 10.8962ZM12.1386 6.11462L12.1398 5.11462H12.1386V6.11462ZM12.1374 7.85028C13.8195 7.85226 15.1826 9.21534 15.1845 10.8974L17.1845 10.895C17.1813 8.11027 14.9246 5.85356 12.1398 5.85028L12.1374 7.85028ZM15.1845 10.8962C15.1845 11.6515 15.7968 12.264 16.5524 12.264V10.264C16.9016 10.264 17.1845 10.5471 17.1845 10.8962H15.1845ZM16.5524 12.264C17.3077 12.264 17.9202 11.6517 17.9202 10.8962H15.9202C15.9202 10.547 16.2033 10.264 16.5524 10.264V12.264ZM17.9202 10.895C17.9165 7.70416 15.3307 5.1183 12.1398 5.11462L12.1375 7.11462C14.2256 7.11703 15.9178 8.80922 15.9202 10.8974L17.9202 10.895ZM12.1386 5.11462C11.3833 5.11462 10.7708 5.72693 10.7708 6.48245H12.7708C12.7708 6.83165 12.4877 7.11462 12.1386 7.11462V5.11462ZM10.7708 6.48245C10.7708 7.2379 11.3832 7.85028 12.1386 7.85028V5.85028C12.4877 5.85028 12.7708 6.13333 12.7708 6.48245H10.7708Z" fill="black" mask="url(#path-3-inside-1)"/>
<path d="M14.7133 10.8965C14.7133 11.0996 14.5486 11.2643 14.3455 11.2643C14.1423 11.2643 13.9776 11.0996 13.9776 10.8965C13.9764 9.88126 13.1538 9.0586 12.1386 9.05739L11.7708 8.68961C11.7708 8.48644 11.9355 8.32178 12.1386 8.32178C13.5599 8.3234 14.7117 9.47518 14.7133 10.8965ZM14.7133 10.8965L14.3455 10.8969L14.2133 10.897C14.2133 10.8968 14.2133 10.8966 14.2133 10.8965H14.3455H14.4776H14.7133Z" stroke="black"/>
</svg>
