<svg width="20" height="30" viewBox="0 0 20 30" fill="none" xmlns="http://www.w3.org/2000/svg">
<path d="M0.577576 9.92321C0.577576 4.72771 4.80527 0.5 10.0008 0.5C15.1963 0.5 19.424 4.7277 19.4239 9.92327C19.4239 10.9323 19.0985 12.3126 18.393 14.1141C17.6907 15.9073 16.6268 18.0806 15.1853 20.6638L15.6219 20.9074L15.1853 20.6638C13.1477 24.3154 11.1422 27.3618 11.0585 27.4888C11.0585 27.4888 11.0584 27.4889 11.0584 27.4889L10.0008 29.092L8.94322 27.4889C8.94317 27.4889 8.94312 27.4888 8.94308 27.4887C8.85887 27.3609 6.85383 24.3149 4.8162 20.6637C3.37475 18.0806 2.31093 15.9072 1.60862 14.1141C0.903043 12.3126 0.577576 10.9322 0.577576 9.92321ZM4.35705 9.85621C4.35705 12.9732 6.88391 15.5 10.0008 15.5C13.1177 15.5 15.6446 12.9732 15.6446 9.85621C15.6446 6.73921 13.1177 4.21242 10.0008 4.21242C6.88391 4.21242 4.35705 6.73921 4.35705 9.85621Z" stroke="black"/>
</svg>
