<svg width="96" height="23" viewBox="0 0 96 23" fill="none" xmlns="http://www.w3.org/2000/svg">
<g clip-path="url(#clip0)">
<path d="M15.2403 15.2265C17.8603 13.7959 19.8466 12.706 20.0178 12.6214C20.5653 12.3316 21.131 11.5652 20.0178 10.9699C19.6584 10.7827 17.7232 9.72651 15.2403 8.36475L11.7986 11.821L15.2401 15.2265H15.2403Z" fill="#FFD900"/>
<path d="M11.7982 11.8208L0.838867 22.8038C1.09593 22.8378 1.38637 22.7699 1.72893 22.5827C2.4478 22.1916 10.0682 18.0533 15.2402 15.2271L11.7982 11.8208Z" fill="#F43249"/>
<path d="M11.7985 11.8209L15.2401 8.38146C15.2401 8.38146 2.50002 1.46806 1.72902 1.06012C1.43895 0.888597 1.11345 0.837886 0.822266 0.888597L11.7985 11.8207V11.8209Z" fill="#00EE76"/>
<path d="M11.7984 11.8215L0.822 0.889404C0.3765 0.99176 0 1.3831 0 2.18312V21.5103C0 22.243 0.291375 22.7706 0.838875 22.8214L11.7983 11.8214L11.7984 11.8215Z" fill="#00D3FF"/>
<path d="M47.5376 9.64085C45.5685 9.64085 43.9416 11.1561 43.9416 13.2336C43.9416 15.2941 45.5514 16.8263 47.5378 16.8263C49.524 16.8263 51.1337 15.3111 51.1337 13.2336C51.1337 11.1561 49.524 9.64085 47.5376 9.64085ZM47.5376 15.3966C46.4586 15.3966 45.5173 14.4939 45.5173 13.2175C45.5173 11.9234 46.4593 11.0384 47.5376 11.0384C48.6159 11.0384 49.5579 11.9234 49.5579 13.2175C49.5579 14.4939 48.6159 15.3966 47.5376 15.3966ZM39.7119 9.64085C37.7256 9.64085 36.1157 11.1561 36.1157 13.2336C36.1157 15.2941 37.7256 16.8263 39.7119 16.8263C41.6981 16.8263 43.308 15.3111 43.308 13.2336C43.308 11.1561 41.6981 9.64085 39.7117 9.64085H39.7119ZM39.7119 15.3966C38.6327 15.3966 37.6916 14.4939 37.6916 13.2175C37.6916 11.9234 38.6336 11.0384 39.7119 11.0384C40.791 11.0384 41.7322 11.9234 41.7322 13.2175C41.7322 14.4939 40.8071 15.3966 39.7119 15.3966ZM30.4134 10.7477V12.2629H34.0434C33.9403 13.1142 33.6501 13.7442 33.2216 14.1702C32.691 14.6979 31.869 15.2771 30.4134 15.2771C28.1698 15.2771 26.4409 13.4724 26.4409 11.2416C26.4409 9.01086 28.1707 7.172 30.4134 7.172C31.6288 7.172 32.5027 7.64891 33.1534 8.26212L34.2317 7.18897C33.3238 6.3209 32.1084 5.65698 30.4134 5.65698C27.3478 5.65698 24.7791 8.15958 24.7791 11.2077C24.7791 14.256 27.3478 16.7586 30.4134 16.7586C32.0743 16.7586 33.3077 16.214 34.3007 15.1917C35.3109 14.1872 35.6192 12.7736 35.6192 11.633C35.6192 11.2756 35.5852 10.9519 35.5333 10.6793L30.4134 10.7477ZM68.4634 11.9225C68.172 11.1221 67.2478 9.64085 65.3977 9.64085C63.5479 9.64085 62.0241 11.0884 62.0241 13.2336C62.0241 15.2425 63.5479 16.8263 65.5691 16.8263C67.2129 16.8263 68.1549 15.8217 68.5485 15.2425L67.3331 14.4253C66.9217 15.0215 66.3741 15.4127 65.5691 15.4127C64.7642 15.4127 64.1994 15.0553 63.8392 14.3227L68.6167 12.3308L68.4634 11.9225ZM63.5998 13.1319C63.5659 11.7523 64.6791 11.0375 65.466 11.0375C66.0997 11.0375 66.6135 11.344 66.8015 11.8039L63.5998 13.1319ZM59.7126 16.5882H61.2883V6.0651H59.7126V16.5882ZM57.1446 10.4412H57.0934C56.7339 10.0152 56.0662 9.64085 55.2094 9.64085C53.4112 9.64085 51.7845 11.2247 51.7845 13.2336C51.7845 15.2425 53.4283 16.8095 55.2094 16.8095C56.0653 16.8095 56.7332 16.4349 57.0934 15.9919H57.1446V16.5028C57.1446 17.8825 56.4077 18.614 55.2264 18.614C54.2674 18.614 53.6677 17.9162 53.4283 17.3369L52.0588 17.9162C52.4522 18.8698 53.4973 20.0446 55.2264 20.0446C57.0756 20.0446 58.6342 18.9547 58.6342 16.3156V9.86197H57.1446V10.4412ZM55.3464 15.3966C54.2674 15.3966 53.3602 14.4939 53.3602 13.2345C53.3602 11.9751 54.2681 11.0552 55.3464 11.0552C56.4086 11.0552 57.2646 11.9751 57.2646 13.2345C57.2638 14.4769 56.4077 15.3966 55.3464 15.3966ZM75.8096 6.06529H72.0424V16.5882H73.6181V12.6034H75.8096C77.5565 12.6034 79.2686 11.3431 79.2686 9.33434C79.2686 7.32544 77.5565 6.0651 75.8096 6.0651V6.06529ZM75.8606 11.14H73.6342V7.52941H75.8606C77.025 7.52941 77.7099 8.50002 77.7099 9.33415C77.6936 10.1515 77.0259 11.14 75.8606 11.14ZM85.5536 9.62388C84.4234 9.62388 83.2417 10.1178 82.7623 11.2416L84.1498 11.8209C84.4582 11.2416 85.0059 11.0544 85.5885 11.0544C86.4105 11.0544 87.2323 11.5481 87.2494 12.4162V12.5187C86.958 12.3485 86.3593 12.1097 85.6056 12.1097C84.0988 12.1097 82.5741 12.944 82.5741 14.4769C82.5741 15.8903 83.8074 16.7925 85.1771 16.7925C86.2391 16.7925 86.8209 16.3156 87.1804 15.754H87.2316V16.5714H88.7552V12.5355C88.7383 10.6799 87.3516 9.62369 85.5536 9.62369V9.62388ZM85.3654 15.3797C84.8516 15.3797 84.132 15.1239 84.132 14.4946C84.132 13.6773 85.022 13.3708 85.7929 13.3708C86.4776 13.3708 86.8031 13.524 87.2316 13.7282C87.1116 14.6988 86.2725 15.3797 85.3654 15.3797ZM94.2525 9.8629L92.4544 14.4091H92.4032L90.5372 9.86271H88.8422L91.6502 16.2308L90.0574 19.7897H91.7012L95.999 9.86271H94.2523L94.2525 9.8629ZM80.1424 16.5882H81.7181V6.0651H80.1424V16.5882Z" fill="#808285"/>
</g>
<defs>
<clipPath id="clip0">
<rect width="96" height="22" fill="white" transform="translate(0 0.869873)"/>
</clipPath>
</defs>
</svg>
