<svg width="31" height="31" viewBox="0 0 31 31" fill="none" xmlns="http://www.w3.org/2000/svg">
<path d="M21.3637 0.522949H9.06484C4.06646 0.522949 0 4.58941 0 9.58778V21.8867C0 26.8851 4.06646 30.9515 9.06484 30.9515H21.3637C26.3621 30.9515 30.4286 26.8851 30.4286 21.8867V9.58778C30.4285 4.58941 26.3621 0.522949 21.3637 0.522949ZM27.3675 21.8867C27.3675 25.2024 24.6795 27.8904 21.3637 27.8904H9.06484C5.7491 27.8904 3.06111 25.2024 3.06111 21.8867V9.58778C3.06111 6.27199 5.7491 3.58406 9.06484 3.58406H21.3637C24.6795 3.58406 27.3675 6.27199 27.3675 9.58778V21.8867Z" fill="url(#paint0_linear)"/>
<path d="M15.2146 7.86743C10.8751 7.86743 7.3447 11.3979 7.3447 15.7373C7.3447 20.0767 10.8751 23.6072 15.2146 23.6072C19.5541 23.6072 23.0845 20.0768 23.0845 15.7373C23.0845 11.3978 19.5541 7.86743 15.2146 7.86743ZM15.2146 20.5461C12.5588 20.5461 10.4058 18.3932 10.4058 15.7373C10.4058 13.0815 12.5588 10.9285 15.2146 10.9285C17.8705 10.9285 20.0234 13.0815 20.0234 15.7373C20.0234 18.3931 17.8704 20.5461 15.2146 20.5461Z" fill="url(#paint1_linear)"/>
<path d="M23.0993 9.81211C24.1408 9.81211 24.9851 8.96782 24.9851 7.92632C24.9851 6.88483 24.1408 6.04053 23.0993 6.04053C22.0578 6.04053 21.2135 6.88483 21.2135 7.92632C21.2135 8.96782 22.0578 9.81211 23.0993 9.81211Z" fill="url(#paint2_linear)"/>
<defs>
<linearGradient id="paint0_linear" x1="15.2143" y1="30.8629" x2="15.2143" y2="0.759293" gradientUnits="userSpaceOnUse">
<stop stop-color="#E09B3D"/>
<stop offset="0.3" stop-color="#C74C4D"/>
<stop offset="0.6" stop-color="#C21975"/>
<stop offset="1" stop-color="#7024C4"/>
</linearGradient>
<linearGradient id="paint1_linear" x1="15.2146" y1="30.863" x2="15.2146" y2="0.759406" gradientUnits="userSpaceOnUse">
<stop stop-color="#E09B3D"/>
<stop offset="0.3" stop-color="#C74C4D"/>
<stop offset="0.6" stop-color="#C21975"/>
<stop offset="1" stop-color="#7024C4"/>
</linearGradient>
<linearGradient id="paint2_linear" x1="23.0993" y1="30.8629" x2="23.0993" y2="0.759204" gradientUnits="userSpaceOnUse">
<stop stop-color="#E09B3D"/>
<stop offset="0.3" stop-color="#C74C4D"/>
<stop offset="0.6" stop-color="#C21975"/>
<stop offset="1" stop-color="#7024C4"/>
</linearGradient>
</defs>
</svg>
