<svg width="159" height="37" viewBox="0 0 159 37" fill="none" xmlns="http://www.w3.org/2000/svg">
<path d="M3.24327 10.0887C3.10802 10.0887 2.97578 10.0887 2.84354 10.1094C2.36 10.1449 1.88525 10.2556 1.43698 10.4373C1.1819 10.993 0.961103 11.5632 0.775777 12.145C1.19269 11.7533 1.70171 11.4691 2.25747 11.3177C2.57659 11.2205 2.90917 11.1726 3.24327 11.1759C3.88765 11.1727 4.52115 11.3393 5.07786 11.6583C5.63457 11.9773 6.09417 12.4371 6.40884 12.9899C6.72352 13.5427 6.88178 14.1683 6.86717 14.8016C6.85256 15.4349 6.66561 16.0528 6.32576 16.591C5.98591 17.1291 5.50558 17.568 4.93473 17.8619C4.36388 18.1558 3.72335 18.2939 3.07978 18.262C2.4362 18.2301 1.81307 18.0292 1.27522 17.6804C0.737358 17.3315 0.30441 16.8473 0.0214045 16.2782C0.0214045 16.5264 0.000366211 16.7657 0.000366211 17.0168C0.000366211 17.3743 0.000366211 17.7348 0.0454482 18.0834C0.390242 18.4131 0.790985 18.6811 1.2296 18.8752C1.8567 19.1753 2.54582 19.329 3.24327 19.3242C4.46975 19.2938 5.63557 18.7934 6.49207 17.9299C7.34856 17.0664 7.82794 15.9081 7.82794 14.702C7.82794 13.496 7.34856 12.3377 6.49207 11.4742C5.63557 10.6107 4.46975 10.1103 3.24327 10.0798V10.0887Z" fill="black"/>
<path d="M32.5387 16.1572C32.2879 16.6869 31.9118 17.1499 31.4417 17.5074C30.9877 17.8546 30.4559 18.0901 29.8905 18.1942C29.3252 18.2983 28.7427 18.2679 28.1917 18.1056C27.6407 17.9434 27.1371 17.6539 26.7231 17.2614C26.3091 16.8689 25.9966 16.3847 25.8116 15.8493C25.6267 15.3139 25.5747 14.7428 25.66 14.1836C25.7453 13.6244 25.9655 13.0934 26.302 12.6349C26.6386 12.1764 27.0819 11.8037 27.5948 11.5478C28.1077 11.292 28.6755 11.1604 29.2507 11.1642C29.6081 11.1631 29.9634 11.219 30.3026 11.3297C30.8719 11.495 31.389 11.8 31.8053 12.216C31.6156 11.6187 31.3908 11.0328 31.1321 10.4611C30.6834 10.2642 30.2055 10.1395 29.7165 10.0918C29.5602 10.0918 29.416 10.0681 29.2507 10.0681C28.0242 10.0986 26.8584 10.599 26.0019 11.4625C25.1454 12.326 24.666 13.4843 24.666 14.6903C24.666 15.8964 25.1454 17.0547 26.0019 17.9182C26.8584 18.7817 28.0242 19.282 29.2507 19.3125C30.4704 19.298 31.6398 18.8329 32.5266 18.0096C32.5477 17.6817 32.5597 17.3449 32.5597 17.0081C32.5597 16.7333 32.5477 16.4408 32.5387 16.1572Z" fill="black"/>
<path d="M16.173 25.0796C15.7448 25.0807 15.3258 24.957 14.9691 24.7239C14.6125 24.4909 14.3342 24.1591 14.1695 23.7705C14.0048 23.3819 13.9611 22.954 14.0439 22.541C14.1267 22.128 14.3323 21.7484 14.6347 21.4503C14.9371 21.1522 15.3227 20.9491 15.7426 20.8665C16.1625 20.7839 16.5979 20.8257 16.9937 20.9866C17.3895 21.1474 17.7278 21.42 17.9658 21.77C18.2039 22.1199 18.3309 22.5314 18.3309 22.9524C18.3301 23.5153 18.1027 24.055 17.6984 24.4536C17.294 24.8522 16.7456 25.0772 16.173 25.0796V25.0796ZM16.173 21.9124C15.9638 21.9124 15.7592 21.9734 15.5852 22.0877C15.4113 22.202 15.2757 22.3644 15.1956 22.5544C15.1155 22.7444 15.0946 22.9535 15.1354 23.1553C15.1762 23.357 15.277 23.5423 15.4249 23.6877C15.5729 23.8332 15.7614 23.9322 15.9666 23.9724C16.1718 24.0125 16.3845 23.9919 16.5779 23.9132C16.7712 23.8345 16.9364 23.7012 17.0526 23.5301C17.1689 23.3591 17.2309 23.1581 17.2309 22.9524C17.2309 22.8158 17.2036 22.6806 17.1504 22.5544C17.0972 22.4282 17.0193 22.3136 16.9211 22.217C16.8228 22.1204 16.7062 22.0438 16.5779 21.9916C16.4495 21.9393 16.3119 21.9124 16.173 21.9124V21.9124Z" fill="black"/>
<path d="M16.1745 18.5153C15.0218 18.5153 13.895 18.1792 12.9366 17.5496C11.9782 16.92 11.2312 16.0251 10.7902 14.9782C10.3493 13.9313 10.234 12.7793 10.4591 11.6679C10.6842 10.5566 11.2395 9.53587 12.0549 8.73482C12.8702 7.93377 13.9088 7.38841 15.0395 7.1677C16.1701 6.94699 17.3419 7.06086 18.4067 7.4949C19.4715 7.92894 20.3815 8.66365 21.0215 9.60611C21.6614 10.5486 22.0027 11.6564 22.0021 12.7896C21.9997 14.3079 21.3849 15.7633 20.2924 16.8367C19.2 17.91 17.7191 18.5137 16.1745 18.5153V18.5153ZM16.1745 8.14817C15.2407 8.14817 14.3278 8.42038 13.5514 8.93039C12.7749 9.44039 12.1697 10.1653 11.8123 11.0134C11.455 11.8615 11.3615 12.7947 11.5437 13.6951C11.7258 14.5954 12.1755 15.4224 12.8359 16.0715C13.4962 16.7207 14.3375 17.1627 15.2534 17.3418C16.1693 17.5209 17.1186 17.429 17.9814 17.0777C18.8442 16.7264 19.5816 16.1315 20.1004 15.3682C20.6192 14.6049 20.8961 13.7076 20.8961 12.7896C20.8945 11.5591 20.3966 10.3794 19.5114 9.50933C18.6263 8.63924 17.4263 8.14973 16.1745 8.14817V8.14817Z" fill="black"/>
<path d="M26.945 28.0519C24.0628 19.2566 19.4313 17.5489 19.3802 17.5341L19.7439 16.506C19.9513 16.5769 24.9283 18.3466 27.9969 27.7328L26.945 28.0519Z" fill="black"/>
<path d="M5.4514 28.0967L4.39648 27.7629C7.46507 18.3914 12.4421 16.6188 12.6525 16.5479L13.0102 17.576L12.8298 17.0619L13.0132 17.576C12.9681 17.5908 8.33064 19.2984 5.4514 28.0967Z" fill="black"/>
<path d="M8.57362 20.249C8.11979 19.1585 7.33741 18.2307 6.33154 17.59L6.86351 16.6357C8.09232 17.3889 9.04748 18.5047 9.59247 19.8236L8.57362 20.249Z" fill="black"/>
<path d="M23.744 20.2404L22.7281 19.812C23.2721 18.4925 24.2275 17.3764 25.4571 16.6241L25.9831 17.5784L25.7216 17.0998L25.9861 17.5784C24.9797 18.2199 24.1973 19.1488 23.744 20.2404V20.2404Z" fill="black"/>
<path d="M32.5402 16.1574C32.4432 14.1881 31.9659 12.255 31.1336 10.4612C29.8512 7.64613 27.7684 5.25542 25.1359 3.57686C22.5035 1.8983 19.4336 1.00344 16.2958 1.00001C13.1581 0.996576 10.0862 1.88471 7.44992 3.55751C4.81367 5.2303 2.72545 7.61645 1.43661 10.4287C1.18154 10.9844 0.960737 11.5546 0.77541 12.1364C0.33647 13.4756 0.0827386 14.8668 0.0210383 16.2726C0.0210383 16.5207 0 16.7601 0 17.0112C0 17.3687 0 17.7291 0.045082 18.0777C0.283905 21.6091 1.70701 24.9631 4.09168 27.6146C6.47635 30.2662 9.68802 32.0658 13.2241 32.7317C13.5824 32.808 13.9446 32.8662 14.309 32.906L14.5194 31.8306C14.1527 31.7981 13.7891 31.742 13.4344 31.677C10.2858 31.0828 7.40931 29.5243 5.21687 27.2247C3.02443 24.9252 1.62858 22.0025 1.22924 18.8754C1.16749 18.4366 1.13037 17.9947 1.11803 17.5518C1.11803 17.3775 1.11803 17.1914 1.11803 17.0082C1.11152 15.0561 1.49867 13.1221 2.25711 11.318C2.43476 10.9047 2.63543 10.5013 2.8582 10.1096C4.13897 7.69439 6.06886 5.67057 8.43802 4.25824C10.8072 2.84591 13.5249 2.09914 16.2956 2.09914C19.0664 2.09914 21.7841 2.84591 24.1533 4.25824C26.5224 5.67057 28.4523 7.69439 29.7331 10.1096C29.9435 10.4996 30.1418 10.9132 30.3342 11.3387C31.0968 13.1409 31.488 15.074 31.4853 17.026C31.4853 17.1884 31.4853 17.3509 31.4853 17.5164C31.4768 17.9604 31.4397 18.4035 31.3741 18.8429C30.9802 21.9929 29.5753 24.9374 27.3632 27.249C25.1511 29.5606 22.247 31.1189 19.0727 31.6977C18.706 31.7626 18.3424 31.8158 17.9667 31.8601L18.1771 32.9267C18.5486 32.8935 18.9179 32.8392 19.2831 32.7642C22.8506 32.1123 26.0948 30.3088 28.5016 27.6394C30.9085 24.97 32.3403 21.5873 32.5702 18.0275C32.5913 17.6996 32.6033 17.3628 32.6033 17.026C32.5612 16.7335 32.5492 16.441 32.5402 16.1574Z" fill="black"/>
<path d="M13.035 33.7127L13.2334 32.7318L13.4438 31.6771L14.9255 24.2053L16.0104 24.4121L14.5288 31.8307L14.3184 32.9061L14.2282 33.3404L16.2298 35.2667L18.2225 33.3404L18.1353 32.9179L17.9249 31.8514L16.4523 24.4121L17.5372 24.2053L19.0309 31.6889L19.2413 32.7554L19.4277 33.7127L16.2329 36.7587" fill="black"/>
<path d="M50.904 5.76L49.992 6.496C49.4587 5.73867 48.68 5.36 47.656 5.36C47.0267 5.36 46.4667 5.54667 45.976 5.92C45.4853 6.29333 45.24 6.816 45.24 7.488C45.24 7.76533 45.288 8.016 45.384 8.24C45.4907 8.464 45.6027 8.64 45.72 8.768C45.8373 8.896 46.0293 9.02933 46.296 9.168C46.5733 9.30667 46.7867 9.40267 46.936 9.456C47.096 9.50933 47.352 9.59467 47.704 9.712C48.0667 9.82933 48.3013 9.90933 48.408 9.952C48.5253 9.984 48.7387 10.064 49.048 10.192C49.368 10.32 49.5867 10.432 49.704 10.528C49.832 10.6133 50.0027 10.7467 50.216 10.928C50.44 11.1093 50.5947 11.2907 50.68 11.472C50.776 11.6533 50.8613 11.8773 50.936 12.144C51.0213 12.4107 51.064 12.704 51.064 13.024C51.064 14.08 50.696 14.8907 49.96 15.456C49.224 16.0107 48.36 16.288 47.368 16.288C46.6533 16.288 45.976 16.144 45.336 15.856C44.7067 15.568 44.1947 15.152 43.8 14.608L44.792 13.872C45.0587 14.2987 45.416 14.6453 45.864 14.912C46.312 15.168 46.8187 15.296 47.384 15.296C48.0347 15.296 48.616 15.104 49.128 14.72C49.64 14.3253 49.896 13.7867 49.896 13.104C49.896 12.7947 49.8373 12.5227 49.72 12.288C49.6133 12.0427 49.4907 11.8453 49.352 11.696C49.2133 11.5467 48.9947 11.4027 48.696 11.264C48.408 11.1147 48.168 11.008 47.976 10.944C47.7947 10.88 47.512 10.7893 47.128 10.672C46.68 10.5333 46.3013 10.3947 45.992 10.256C45.6933 10.1173 45.384 9.93067 45.064 9.696C44.744 9.46133 44.4987 9.16267 44.328 8.8C44.168 8.42667 44.088 7.99467 44.088 7.504C44.088 6.81067 44.2747 6.224 44.648 5.744C45.032 5.25333 45.4853 4.90667 46.008 4.704C46.5413 4.49067 47.1067 4.384 47.704 4.384C48.4187 4.384 49.0587 4.51733 49.624 4.784C50.1893 5.04 50.616 5.36533 50.904 5.76ZM54.6873 13.024L53.4553 16H52.1913L57.0873 4.672H58.2073L63.0713 16H61.7913L60.5433 13.024H54.6873ZM57.6153 5.952L55.1193 11.968H60.1112L57.6153 5.952ZM65.8904 4.672V14.976H71.1704V16H64.7384V4.672H65.8904ZM74.0466 10.608V14.976H80.1106V16H72.8946V4.672H79.9186V5.696H74.0466V9.6H79.5346V10.608H74.0466ZM88.7634 5.76L87.8514 6.496C87.318 5.73867 86.5394 5.36 85.5154 5.36C84.886 5.36 84.326 5.54667 83.8354 5.92C83.3447 6.29333 83.0994 6.816 83.0994 7.488C83.0994 7.76533 83.1474 8.016 83.2434 8.24C83.35 8.464 83.462 8.64 83.5794 8.768C83.6967 8.896 83.8887 9.02933 84.1554 9.168C84.4327 9.30667 84.646 9.40267 84.7954 9.456C84.9554 9.50933 85.2114 9.59467 85.5634 9.712C85.926 9.82933 86.1607 9.90933 86.2674 9.952C86.3847 9.984 86.598 10.064 86.9074 10.192C87.2274 10.32 87.446 10.432 87.5634 10.528C87.6914 10.6133 87.862 10.7467 88.0754 10.928C88.2994 11.1093 88.454 11.2907 88.5394 11.472C88.6354 11.6533 88.7207 11.8773 88.7954 12.144C88.8807 12.4107 88.9234 12.704 88.9234 13.024C88.9234 14.08 88.5554 14.8907 87.8194 15.456C87.0834 16.0107 86.2194 16.288 85.2274 16.288C84.5127 16.288 83.8354 16.144 83.1954 15.856C82.566 15.568 82.054 15.152 81.6594 14.608L82.6514 13.872C82.918 14.2987 83.2754 14.6453 83.7234 14.912C84.1714 15.168 84.678 15.296 85.2434 15.296C85.894 15.296 86.4754 15.104 86.9874 14.72C87.4994 14.3253 87.7554 13.7867 87.7554 13.104C87.7554 12.7947 87.6967 12.5227 87.5794 12.288C87.4727 12.0427 87.35 11.8453 87.2114 11.696C87.0727 11.5467 86.854 11.4027 86.5554 11.264C86.2674 11.1147 86.0274 11.008 85.8354 10.944C85.654 10.88 85.3714 10.7893 84.9874 10.672C84.5394 10.5333 84.1607 10.3947 83.8514 10.256C83.5527 10.1173 83.2434 9.93067 82.9234 9.696C82.6034 9.46133 82.358 9.16267 82.1874 8.8C82.0274 8.42667 81.9474 7.99467 81.9474 7.504C81.9474 6.81067 82.134 6.224 82.5074 5.744C82.8914 5.25333 83.3447 4.90667 83.8674 4.704C84.4007 4.49067 84.966 4.384 85.5634 4.384C86.278 4.384 86.918 4.51733 87.4834 4.784C88.0487 5.04 88.4754 5.36533 88.7634 5.76ZM104.435 9.872L102.355 13.376L104.899 16H103.299L101.699 14.32C101.229 14.9707 100.717 15.4453 100.163 15.744C99.6186 16.0427 98.968 16.192 98.2106 16.192C97.1973 16.192 96.3546 15.9147 95.6826 15.36C95.0106 14.8053 94.6746 14.0373 94.6746 13.056C94.6746 11.584 95.5493 10.464 97.2986 9.696C96.3813 8.75733 95.9226 7.87733 95.9226 7.056C95.9226 6.23467 96.1893 5.584 96.7226 5.104C97.2666 4.624 97.9386 4.384 98.7386 4.384C99.5173 4.384 100.168 4.61333 100.691 5.072C101.213 5.53067 101.475 6.14933 101.475 6.928C101.475 7.6 101.24 8.17067 100.771 8.64C100.312 9.09867 99.6986 9.52 98.9306 9.904L101.571 12.624L103.139 9.872H104.435ZM100.355 6.928C100.355 6.46933 100.2 6.09067 99.8906 5.792C99.592 5.48267 99.2133 5.328 98.7546 5.328C98.2533 5.328 97.8426 5.488 97.5226 5.808C97.2026 6.128 97.0426 6.54933 97.0426 7.072C97.0426 7.43467 97.176 7.82933 97.4426 8.256C97.72 8.672 97.9973 8.992 98.2746 9.216C98.904 8.928 99.4053 8.608 99.7786 8.256C100.163 7.89333 100.355 7.45067 100.355 6.928ZM100.931 13.568L97.9386 10.432C96.552 11.0507 95.8586 11.9307 95.8586 13.072C95.8586 13.7013 96.088 14.2187 96.5466 14.624C97.0053 15.0293 97.5653 15.232 98.2266 15.232C98.824 15.232 99.3306 15.0987 99.7466 14.832C100.163 14.5653 100.557 14.144 100.931 13.568Z" fill="black"/>
<path d="M46.264 20.672L50.104 30.048H50.12L53.912 20.672H55.672V32H54.52V22.16H54.488L50.392 32H49.784L45.688 22.16H45.656V32H44.504V20.672H46.264ZM59.8279 29.024L58.5959 32H57.3319L62.2279 20.672H63.3479L68.2119 32H66.9319L65.6839 29.024H59.8279ZM62.7559 21.952L60.2599 27.968H65.2519L62.7559 21.952ZM71.319 20.672L77.911 30.32H77.943V20.672H79.095V32H77.655L71.063 22.256H71.031V32H69.879V20.672H71.319ZM83.2498 29.024L82.0178 32H80.7538L85.6498 20.672H86.7698L91.6338 32H90.3538L89.1058 29.024H83.2498ZM86.1778 21.952L83.6818 27.968H88.6737L86.1778 21.952ZM102.412 21.904L101.612 22.704C100.79 21.8293 99.697 21.392 98.3316 21.392C96.9236 21.392 95.7876 21.872 94.9236 22.832C94.0596 23.792 93.6276 24.96 93.6276 26.336C93.6276 27.7013 94.0596 28.864 94.9236 29.824C95.7876 30.784 96.9236 31.264 98.3316 31.264C99.6223 31.264 100.641 31.0187 101.388 30.528V27.088H98.7476V26.08H102.54V31.184C101.313 31.92 99.905 32.288 98.3156 32.288C96.609 32.288 95.1956 31.728 94.0756 30.608C92.9663 29.4773 92.4116 28.0533 92.4116 26.336C92.4116 24.6187 92.9716 23.2 94.0916 22.08C95.2116 20.9493 96.6196 20.384 98.3156 20.384C100.012 20.384 101.377 20.8907 102.412 21.904ZM106.64 26.608V30.976H112.704V32H105.488V20.672H112.512V21.696H106.64V25.6H112.128V26.608H106.64ZM116.717 20.672L120.557 30.048H120.573L124.365 20.672H126.125V32H124.973V22.16H124.941L120.845 32H120.237L116.141 22.16H116.109V32H114.957V20.672H116.717ZM130.281 26.608V30.976H136.345V32H129.129V20.672H136.153V21.696H130.281V25.6H135.769V26.608H130.281ZM140.038 20.672L146.63 30.32H146.662V20.672H147.814V32H146.374L139.782 22.256H139.75V32H138.598V20.672H140.038ZM154.449 21.696V32H153.297V21.696H149.505V20.672H158.241V21.696H154.449Z" fill="black"/>
</svg>
