<svg width="144" height="35" viewBox="0 0 144 35" fill="none" xmlns="http://www.w3.org/2000/svg">
<path d="M3.08343 9.4198C2.95483 9.4198 2.82909 9.4198 2.70336 9.43947C2.24359 9.47326 1.79219 9.5785 1.36597 9.75128C1.12343 10.2796 0.913492 10.8218 0.737279 11.375C1.13369 11.0025 1.61768 10.7323 2.14611 10.5884C2.44954 10.4959 2.76576 10.4504 3.08343 10.4536C3.69613 10.4505 4.29847 10.6089 4.8278 10.9122C5.35714 11.2156 5.79413 11.6528 6.09333 12.1784C6.39253 12.704 6.54301 13.2988 6.52912 13.9009C6.51523 14.5031 6.33747 15.0906 6.01434 15.6023C5.6912 16.114 5.23449 16.5313 4.69171 16.8107C4.14893 17.0902 3.53991 17.2215 2.92798 17.1912C2.31605 17.1608 1.72357 16.9699 1.21216 16.6381C0.700749 16.3064 0.289093 15.8461 0.0200037 15.305C0.0200037 15.5409 0 15.7685 0 16.0072C0 16.3471 0 16.6899 0.0428651 17.0213C0.370703 17.3348 0.751739 17.5896 1.16879 17.7742C1.76504 18.0595 2.42028 18.2057 3.08343 18.2012C4.24959 18.1722 5.35809 17.6964 6.17246 16.8754C6.98684 16.0544 7.44264 14.953 7.44264 13.8063C7.44264 12.6595 6.98684 11.5582 6.17246 10.7372C5.35809 9.91611 4.24959 9.44036 3.08343 9.41138V9.4198Z" fill="white"/>
<path d="M30.9386 15.1895C30.7002 15.6932 30.3426 16.1334 29.8956 16.4733C29.464 16.8035 28.9583 17.0274 28.4207 17.1264C27.8831 17.2253 27.3293 17.1964 26.8054 17.0422C26.2815 16.8879 25.8027 16.6126 25.4091 16.2394C25.0154 15.8662 24.7182 15.4059 24.5424 14.8968C24.3666 14.3877 24.3171 13.8447 24.3983 13.313C24.4794 12.7813 24.6887 12.2765 25.0087 11.8405C25.3287 11.4045 25.7502 11.0501 26.2379 10.8068C26.7256 10.5636 27.2654 10.4385 27.8123 10.4421C28.1522 10.441 28.49 10.4942 28.8125 10.5994C29.3538 10.7566 29.8455 11.0466 30.2414 11.4421C30.0609 10.8743 29.8472 10.3171 29.6012 9.77352C29.1746 9.58631 28.7202 9.46775 28.2553 9.42238C28.1067 9.42238 27.9695 9.3999 27.8123 9.3999C26.6462 9.42889 25.5377 9.90464 24.7233 10.7257C23.9089 11.5467 23.4531 12.6481 23.4531 13.7948C23.4531 14.9415 23.9089 16.0429 24.7233 16.8639C25.5377 17.685 26.6462 18.1607 27.8123 18.1897C28.972 18.1759 30.084 17.7337 30.9272 16.9509C30.9472 16.6391 30.9586 16.3188 30.9586 15.9986C30.9586 15.7373 30.9472 15.4592 30.9386 15.1895Z" fill="white"/>
<path d="M15.3777 23.6731C14.9705 23.6742 14.5721 23.5565 14.233 23.335C13.8939 23.1134 13.6293 22.7979 13.4727 22.4284C13.3161 22.0589 13.2746 21.6521 13.3533 21.2594C13.432 20.8667 13.6275 20.5057 13.9151 20.2223C14.2026 19.9389 14.5692 19.7457 14.9685 19.6672C15.3677 19.5887 15.7817 19.6284 16.158 19.7814C16.5343 19.9343 16.856 20.1935 17.0823 20.5262C17.3087 20.859 17.4295 21.2502 17.4295 21.6505C17.4287 22.1857 17.2125 22.6989 16.8281 23.0779C16.4436 23.4569 15.9222 23.6709 15.3777 23.6731ZM15.3777 20.6617C15.1787 20.6617 14.9843 20.7197 14.8188 20.8283C14.6534 20.937 14.5245 21.0914 14.4484 21.2721C14.3722 21.4528 14.3523 21.6516 14.3911 21.8434C14.4299 22.0352 14.5257 22.2114 14.6664 22.3497C14.8071 22.488 14.9863 22.5822 15.1815 22.6203C15.3766 22.6585 15.5788 22.6389 15.7626 22.5641C15.9464 22.4892 16.1035 22.3625 16.2141 22.1999C16.3246 22.0373 16.3836 21.8461 16.3836 21.6505C16.3836 21.5207 16.3576 21.3921 16.307 21.2721C16.2565 21.1521 16.1824 21.0431 16.089 20.9513C15.9956 20.8595 15.8847 20.7867 15.7626 20.737C15.6406 20.6873 15.5098 20.6617 15.3777 20.6617Z" fill="white"/>
<path d="M15.3789 17.4315C14.2829 17.4314 13.2115 17.1119 12.3002 16.5133C11.3889 15.9146 10.6787 15.0638 10.2594 14.0683C9.8401 13.0729 9.73054 11.9775 9.94457 10.9208C10.1586 9.86417 10.6866 8.89363 11.4618 8.13197C12.237 7.37032 13.2246 6.85177 14.2997 6.64192C15.3747 6.43207 16.4889 6.54033 17.5014 6.95303C18.5138 7.36572 19.379 8.06431 19.9875 8.96042C20.596 9.85653 20.9205 10.9099 20.9199 11.9873C20.9177 13.431 20.3331 14.8149 19.2943 15.8354C18.2556 16.856 16.8475 17.43 15.3789 17.4315ZM15.3789 7.57417C14.491 7.57417 13.623 7.833 12.8847 8.31793C12.1465 8.80285 11.571 9.49209 11.2312 10.2985C10.8915 11.1049 10.8026 11.9922 10.9758 12.8483C11.149 13.7044 11.5766 14.4907 12.2044 15.1079C12.8323 15.7251 13.6322 16.1454 14.5031 16.3157C15.3739 16.486 16.2766 16.3986 17.0969 16.0646C17.9173 15.7305 18.6184 15.1649 19.1117 14.4392C19.605 13.7134 19.8683 12.8602 19.8683 11.9873C19.8668 10.8173 19.3933 9.69571 18.5517 8.8684C17.7101 8.04109 16.5691 7.57566 15.3789 7.57417Z" fill="white"/>
<path d="M25.6195 26.4991C22.8789 18.1363 18.4753 16.5126 18.4267 16.4986L18.7725 15.521C18.9697 15.5884 23.702 17.2711 26.6196 26.1957L25.6195 26.4991Z" fill="white"/>
<path d="M5.18273 26.542L4.17969 26.2245C7.09737 17.3139 11.8297 15.6285 12.0297 15.561L12.3698 16.5386L12.1983 16.0498L12.3726 16.5386C12.3298 16.5527 7.92038 18.1763 5.18273 26.542Z" fill="white"/>
<path d="M8.15135 19.0801C7.71984 18.0433 6.97594 17.161 6.01953 16.5519L6.52534 15.6445C7.69372 16.3607 8.60191 17.4216 9.1201 18.6756L8.15135 19.0801Z" fill="white"/>
<path d="M22.5753 19.0719L21.6094 18.6646C22.1265 17.41 23.035 16.3488 24.2041 15.6335L24.7042 16.5409L24.4556 16.0858L24.7071 16.5409C23.7502 17.1508 23.0063 18.0341 22.5753 19.0719Z" fill="white"/>
<path d="M30.94 15.1898C30.8478 13.3174 30.3939 11.4794 29.6026 9.77378C28.3832 7.09713 26.4028 4.82399 23.8998 3.22797C21.3968 1.63196 18.4779 0.781106 15.4945 0.777841C12.511 0.774577 9.59017 1.61904 7.08356 3.20957C4.57695 4.8001 2.59142 7.06891 1.36597 9.74288C1.12343 10.2712 0.913491 10.8134 0.737279 11.3666C0.319924 12.64 0.0786699 13.9627 0.0200037 15.2994C0.0200037 15.5353 0 15.7629 0 16.0016C0 16.3416 0 16.6843 0.042865 17.0157C0.269944 20.3735 1.62307 23.5625 3.89047 26.0837C6.15787 28.6048 9.2116 30.3159 12.5737 30.9491C12.9145 31.0216 13.2588 31.0769 13.6054 31.1148L13.8054 30.0923C13.4568 30.0614 13.111 30.008 12.7738 29.9462C9.78002 29.3813 7.04495 27.8994 4.96033 25.7129C2.8757 23.5265 1.54849 20.7475 1.16879 17.7742C1.11008 17.3569 1.07478 16.9368 1.06305 16.5157C1.06305 16.35 1.06305 16.173 1.06305 15.9988C1.05686 14.1427 1.42497 12.3038 2.14611 10.5884C2.31503 10.1954 2.50583 9.81187 2.71764 9.43949C3.93543 7.14302 5.77042 5.21872 8.02307 3.87584C10.2757 2.53297 12.8598 1.82292 15.4943 1.82292C18.1288 1.82292 20.7129 2.53297 22.9655 3.87584C25.2181 5.21872 27.0531 7.14302 28.2709 9.43949C28.471 9.8103 28.6596 10.2036 28.8425 10.6081C29.5676 12.3217 29.9396 14.1597 29.9369 16.0157C29.9369 16.1702 29.9369 16.3247 29.9369 16.482C29.9289 16.9042 29.8936 17.3255 29.8312 17.7433C29.4567 20.7384 28.1209 23.5381 26.0176 25.736C23.9142 27.9339 21.153 29.4156 18.1348 29.9659C17.7861 30.0277 17.4404 30.0783 17.0831 30.1204L17.2832 31.1345C17.6365 31.1029 17.9876 31.0513 18.3348 30.98C21.7269 30.3601 24.8115 28.6453 27.1 26.1072C29.3885 23.569 30.7499 20.3528 30.9686 16.968C30.9886 16.6562 31 16.3359 31 16.0157C30.96 15.7376 30.9486 15.4595 30.94 15.1898Z" fill="white"/>
<path d="M12.3945 31.8816L12.5831 30.949L12.7832 29.9461L14.192 22.8418L15.2236 23.0384L13.8148 30.0922L13.6148 31.1147L13.529 31.5277L15.4322 33.3592L17.3269 31.5277L17.244 31.126L17.044 30.1119L15.6437 23.0384L16.6753 22.8418L18.0956 29.9574L18.2956 30.9715L18.4728 31.8816L15.4351 34.7778" fill="white"/>
<path d="M46.916 5.9067L46.118 6.5507C45.6513 5.88803 44.97 5.5567 44.074 5.5567C43.5233 5.5567 43.0333 5.72003 42.604 6.0467C42.1747 6.37337 41.96 6.8307 41.96 7.4187C41.96 7.66137 42.002 7.8807 42.086 8.0767C42.1793 8.2727 42.2773 8.4267 42.38 8.5387C42.4827 8.6507 42.6507 8.76737 42.884 8.8887C43.1267 9.01003 43.3133 9.09403 43.444 9.1407C43.584 9.18737 43.808 9.26203 44.116 9.3647C44.4333 9.46737 44.6387 9.53737 44.732 9.5747C44.8347 9.6027 45.0213 9.6727 45.292 9.7847C45.572 9.8967 45.7633 9.9947 45.866 10.0787C45.978 10.1534 46.1273 10.27 46.314 10.4287C46.51 10.5874 46.6453 10.746 46.72 10.9047C46.804 11.0634 46.8787 11.2594 46.944 11.4927C47.0187 11.726 47.056 11.9827 47.056 12.2627C47.056 13.1867 46.734 13.896 46.09 14.3907C45.446 14.876 44.69 15.1187 43.822 15.1187C43.1967 15.1187 42.604 14.9927 42.044 14.7407C41.4933 14.4887 41.0453 14.1247 40.7 13.6487L41.568 13.0047C41.8013 13.378 42.114 13.6814 42.506 13.9147C42.898 14.1387 43.3413 14.2507 43.836 14.2507C44.4053 14.2507 44.914 14.0827 45.362 13.7467C45.81 13.4014 46.034 12.93 46.034 12.3327C46.034 12.062 45.9827 11.824 45.88 11.6187C45.7867 11.404 45.6793 11.2314 45.558 11.1007C45.4367 10.97 45.2453 10.844 44.984 10.7227C44.732 10.592 44.522 10.4987 44.354 10.4427C44.1953 10.3867 43.948 10.3074 43.612 10.2047C43.22 10.0834 42.8887 9.96203 42.618 9.8407C42.3567 9.71937 42.086 9.55603 41.806 9.3507C41.526 9.14537 41.3113 8.88403 41.162 8.5667C41.022 8.24003 40.952 7.86203 40.952 7.4327C40.952 6.82603 41.1153 6.3127 41.442 5.8927C41.778 5.46337 42.1747 5.16003 42.632 4.9827C43.0987 4.79603 43.5933 4.7027 44.116 4.7027C44.7413 4.7027 45.3013 4.81937 45.796 5.0527C46.2907 5.2767 46.664 5.56137 46.916 5.9067ZM50.2263 12.2627L49.1483 14.8667H48.0423L52.3263 4.9547H53.3063L57.5623 14.8667H56.4423L55.3503 12.2627H50.2263ZM52.7883 6.0747L50.6043 11.3387H54.9723L52.7883 6.0747ZM60.0291 4.9547V13.9707H64.6491V14.8667H59.0211V4.9547H60.0291ZM67.1658 10.1487V13.9707H72.4718V14.8667H66.1578V4.9547H72.3038V5.8507H67.1658V9.2667H71.9678V10.1487H67.1658ZM80.043 5.9067L79.245 6.5507C78.7783 5.88803 78.097 5.5567 77.201 5.5567C76.6503 5.5567 76.1603 5.72003 75.731 6.0467C75.3016 6.37337 75.087 6.8307 75.087 7.4187C75.087 7.66137 75.129 7.8807 75.213 8.0767C75.3063 8.2727 75.4043 8.4267 75.507 8.5387C75.6096 8.6507 75.7776 8.76737 76.011 8.8887C76.2536 9.01003 76.4403 9.09403 76.571 9.1407C76.711 9.18737 76.935 9.26203 77.243 9.3647C77.5603 9.46737 77.7656 9.53737 77.859 9.5747C77.9616 9.6027 78.1483 9.6727 78.419 9.7847C78.699 9.8967 78.8903 9.9947 78.993 10.0787C79.105 10.1534 79.2543 10.27 79.441 10.4287C79.637 10.5874 79.7723 10.746 79.847 10.9047C79.931 11.0634 80.0056 11.2594 80.071 11.4927C80.1456 11.726 80.183 11.9827 80.183 12.2627C80.183 13.1867 79.861 13.896 79.217 14.3907C78.573 14.876 77.817 15.1187 76.949 15.1187C76.3236 15.1187 75.731 14.9927 75.171 14.7407C74.6203 14.4887 74.1723 14.1247 73.827 13.6487L74.695 13.0047C74.9283 13.378 75.241 13.6814 75.633 13.9147C76.025 14.1387 76.4683 14.2507 76.963 14.2507C77.5323 14.2507 78.041 14.0827 78.489 13.7467C78.937 13.4014 79.161 12.93 79.161 12.3327C79.161 12.062 79.1096 11.824 79.007 11.6187C78.9136 11.404 78.8063 11.2314 78.685 11.1007C78.5636 10.97 78.3723 10.844 78.111 10.7227C77.859 10.592 77.649 10.4987 77.481 10.4427C77.3223 10.3867 77.075 10.3074 76.739 10.2047C76.347 10.0834 76.0156 9.96203 75.745 9.8407C75.4836 9.71937 75.213 9.55603 74.933 9.3507C74.653 9.14537 74.4383 8.88403 74.289 8.5667C74.149 8.24003 74.079 7.86203 74.079 7.4327C74.079 6.82603 74.2423 6.3127 74.569 5.8927C74.905 5.46337 75.3016 5.16003 75.759 4.9827C76.2256 4.79603 76.7203 4.7027 77.243 4.7027C77.8683 4.7027 78.4283 4.81937 78.923 5.0527C79.4176 5.2767 79.791 5.56137 80.043 5.9067ZM93.7553 9.5047L91.9353 12.5707L94.1613 14.8667H92.7613L91.3613 13.3967C90.9506 13.966 90.5026 14.3814 90.0173 14.6427C89.5413 14.904 88.972 15.0347 88.3093 15.0347C87.4226 15.0347 86.6853 14.792 86.0973 14.3067C85.5093 13.8214 85.2153 13.1494 85.2153 12.2907C85.2153 11.0027 85.9806 10.0227 87.5113 9.3507C86.7086 8.52937 86.3073 7.75937 86.3073 7.0407C86.3073 6.32203 86.5406 5.7527 87.0073 5.3327C87.4833 4.9127 88.0713 4.7027 88.7713 4.7027C89.4526 4.7027 90.022 4.90337 90.4793 5.3047C90.9366 5.70603 91.1653 6.24737 91.1653 6.9287C91.1653 7.5167 90.96 8.01603 90.5493 8.4267C90.148 8.82803 89.6113 9.1967 88.9393 9.5327L91.2493 11.9127L92.6213 9.5047H93.7553ZM90.1853 6.9287C90.1853 6.52737 90.05 6.19603 89.7793 5.9347C89.518 5.66403 89.1866 5.5287 88.7853 5.5287C88.3466 5.5287 87.9873 5.6687 87.7073 5.9487C87.4273 6.2287 87.2873 6.59737 87.2873 7.0547C87.2873 7.37203 87.404 7.71737 87.6373 8.0907C87.88 8.4547 88.1226 8.7347 88.3653 8.9307C88.916 8.6787 89.3546 8.3987 89.6813 8.0907C90.0173 7.77337 90.1853 7.38603 90.1853 6.9287ZM90.6893 12.7387L88.0713 9.9947C86.858 10.536 86.2513 11.306 86.2513 12.3047C86.2513 12.8554 86.452 13.308 86.8533 13.6627C87.2546 14.0174 87.7446 14.1947 88.3233 14.1947C88.846 14.1947 89.2893 14.078 89.6533 13.8447C90.0173 13.6114 90.3626 13.2427 90.6893 12.7387Z" fill="white"/>
<path d="M42.856 19.9547L46.216 28.1587H46.23L49.548 19.9547H51.088V29.8667H50.08V21.2567H50.052L46.468 29.8667H45.936L42.352 21.2567H42.324V29.8667H41.316V19.9547H42.856ZM54.7244 27.2627L53.6464 29.8667H52.5404L56.8244 19.9547H57.8044L62.0604 29.8667H60.9404L59.8484 27.2627H54.7244ZM57.2864 21.0747L55.1024 26.3387H59.4704L57.2864 21.0747ZM64.7791 19.9547L70.5471 28.3967H70.5751V19.9547H71.5831V29.8667H70.3231L64.5551 21.3407H64.5271V29.8667H63.5191V19.9547H64.7791ZM75.2185 27.2627L74.1405 29.8667H73.0345L77.3185 19.9547H78.2985L82.5545 29.8667H81.4345L80.3425 27.2627H75.2185ZM77.7805 21.0747L75.5965 26.3387H79.9645L77.7805 21.0747ZM91.9852 21.0327L91.2852 21.7327C90.5665 20.9674 89.6098 20.5847 88.4152 20.5847C87.1832 20.5847 86.1892 21.0047 85.4332 21.8447C84.6772 22.6847 84.2992 23.7067 84.2992 24.9107C84.2992 26.1054 84.6772 27.1227 85.4332 27.9627C86.1892 28.8027 87.1832 29.2227 88.4152 29.2227C89.5445 29.2227 90.4358 29.008 91.0892 28.5787V25.5687H88.7792V24.6867H92.0972V29.1527C91.0238 29.7967 89.7918 30.1187 88.4012 30.1187C86.9078 30.1187 85.6712 29.6287 84.6912 28.6487C83.7205 27.6594 83.2352 26.4134 83.2352 24.9107C83.2352 23.408 83.7252 22.1667 84.7052 21.1867C85.6852 20.1974 86.9172 19.7027 88.4012 19.7027C89.8852 19.7027 91.0798 20.146 91.9852 21.0327ZM95.6853 25.1487V28.9707H100.991V29.8667H94.6773V19.9547H100.823V20.8507H95.6853V24.2667H100.487V25.1487H95.6853ZM104.502 19.9547L107.862 28.1587H107.876L111.194 19.9547H112.734V29.8667H111.726V21.2567H111.698L108.114 29.8667H107.582L103.998 21.2567H103.97V29.8667H102.962V19.9547H104.502ZM116.371 25.1487V28.9707H121.677V29.8667H115.363V19.9547H121.509V20.8507H116.371V24.2667H121.173V25.1487H116.371ZM124.908 19.9547L130.676 28.3967H130.704V19.9547H131.712V29.8667H130.452L124.684 21.3407H124.656V29.8667H123.648V19.9547H124.908ZM137.517 20.8507V29.8667H136.509V20.8507H133.191V19.9547H140.835V20.8507H137.517Z" fill="white"/>
</svg>
