<svg width="32" height="31" viewBox="0 0 32 31" fill="none" xmlns="http://www.w3.org/2000/svg">
<g clip-path="url(#clip0)">
<path d="M16.0717 30.9515C24.4743 30.9515 31.286 24.1399 31.286 15.7372C31.286 7.33462 24.4743 0.522949 16.0717 0.522949C7.66909 0.522949 0.857422 7.33462 0.857422 15.7372C0.857422 24.1399 7.66909 30.9515 16.0717 30.9515Z" fill="#039BE5"/>
<path d="M7.81938 15.4075L22.4885 9.7516C23.1693 9.50563 23.764 9.91769 23.5433 10.9472L23.5446 10.9459L21.0469 22.7129C20.8618 23.5471 20.3661 23.75 19.6726 23.357L15.869 20.5537L14.0344 22.3211C13.8316 22.524 13.6604 22.6951 13.2674 22.6951L13.5374 18.8244L20.5867 12.4559C20.8935 12.1859 20.5182 12.0337 20.1138 12.3025L11.4023 17.7873L7.64696 16.6158C6.83172 16.3571 6.81397 15.8005 7.81938 15.4075Z" fill="white"/>
</g>
<defs>
<clipPath id="clip0">
<rect width="30.4286" height="30.4286" fill="white" transform="translate(0.857422 0.522949)"/>
</clipPath>
</defs>
</svg>
