<svg width="54" height="55" viewBox="0 0 54 55" fill="none" xmlns="http://www.w3.org/2000/svg">
<path d="M40.1379 16.4012L35.3153 40.7157C35.3153 40.7157 34.6409 42.402 32.7861 41.5926L21.6575 33.0606L17.6109 31.1048L10.7988 28.8115C10.7988 28.8115 9.75343 28.4406 9.65218 27.6313C9.55093 26.8219 10.8326 26.3836 10.8326 26.3836L37.9119 15.7608C37.9119 15.7608 40.1377 14.7829 40.1377 16.4016" fill="white"/>
<path d="M20.8023 40.4423C20.8023 40.4423 20.4775 40.4119 20.0725 39.1302C19.6681 37.8488 17.6108 31.1043 17.6108 31.1043L33.9665 20.7177C33.9665 20.7177 34.9109 20.1444 34.8771 20.7177C34.8771 20.7177 35.0457 20.819 34.5396 21.291C34.034 21.7633 21.6914 32.858 21.6914 32.858" fill="#D2E5F1"/>
<path d="M25.9244 36.3316L21.5228 40.3449C21.5228 40.3449 21.1786 40.606 20.8022 40.4423L21.6452 32.9878" fill="#B5CFE4"/>
</svg>
