<svg width="31" height="31" viewBox="0 0 31 31" fill="none" xmlns="http://www.w3.org/2000/svg">
<g clip-path="url(#clip0)">
<path d="M30.3731 8.26093C30.0223 6.9574 28.9946 5.9299 27.6913 5.57889C25.3101 4.92725 15.7854 4.92725 15.7854 4.92725C15.7854 4.92725 6.26097 4.92725 3.8798 5.55405C2.60158 5.90483 1.54878 6.95764 1.198 8.26093C0.571426 10.6419 0.571426 15.5797 0.571426 15.5797C0.571426 15.5797 0.571426 20.5424 1.198 22.8985C1.54901 24.2018 2.57651 25.2295 3.88004 25.5805C6.28605 26.2322 15.7856 26.2322 15.7856 26.2322C15.7856 26.2322 25.3101 26.2322 27.6913 25.6054C28.9948 25.2546 30.0223 24.2269 30.3733 22.9236C30.9999 20.5424 30.9999 15.6048 30.9999 15.6048C30.9999 15.6048 31.0249 10.6419 30.3731 8.26093Z" fill="#FF0000"/>
<path d="M12.7529 20.3133L20.6732 15.7515L12.7529 11.1897V20.3133Z" fill="white"/>
</g>
<defs>
<clipPath id="clip0">
<rect width="30.4286" height="30.4286" fill="white" transform="translate(0.571426 0.522949)"/>
</clipPath>
</defs>
</svg>
